<?xml version="1.0" encoding="UTF-8" standalone="no"?>
<!DOCTYPE svg PUBLIC "-//W3C//DTD SVG 1.1//EN" "http://www.w3.org/Graphics/SVG/1.1/DTD/svg11.dtd">
<!-- Created with Vectornator (http://vectornator.io/) -->
<svg height="100%" stroke-miterlimit="10" style="fill-rule:nonzero;clip-rule:evenodd;stroke-linecap:round;stroke-linejoin:round;" version="1.1" viewBox="0 0 1024 1024" width="100%" xml:space="preserve" xmlns="http://www.w3.org/2000/svg" xmlns:xlink="http://www.w3.org/1999/xlink">
<defs/>
<g id="レイヤー-2"/>
<g id="レイヤー-1">
<path d="M362.018 77.0389C341.885 76.803 323.733 90.6988 319.299 111.143C319.164 111.768 318.925 112.79 318.659 114.133C318.244 116.222 317.789 118.617 317.306 121.324C315.957 128.89 314.633 137.439 313.39 146.884C309.566 175.951 307.434 205.809 307.623 235.738C307.812 265.668 310.306 295.669 315.668 324.949C327.248 388.18 351.544 442.158 391.565 482.865C439.332 531.452 506.11 557.267 591.132 557.267C675.006 557.267 745.141 532.222 800.951 485.713C825.402 465.337 846.444 441.255 864.602 414.16C862.19 445.72 858.933 477.031 854.492 507.784C839.296 612.995 812.599 699.792 773.54 761.461C754.341 791.774 732.574 815.504 707.759 832.503C676.842 853.681 641.194 864.413 599.889 864.413C552.851 864.413 515.993 853.835 487.326 834.724C463.534 818.862 445.34 797.032 431.934 770.219C421.116 748.583 414.025 724.923 410.076 701.228C408.693 692.927 407.854 685.283 407.371 678.516C407.209 676.247 407.069 674.302 407.015 672.678C406.988 671.869 407.015 671.456 407.015 671.468C407.015 647.56 387.634 628.18 363.727 628.179C339.819 628.179 320.439 647.56 320.439 671.468C320.439 672.402 320.45 673.811 320.51 675.597C320.6 678.299 320.767 681.328 321.008 684.71C321.678 694.09 322.864 704.393 324.71 715.468C329.988 747.134 339.454 778.917 354.471 808.95C374.281 848.57 402.234 882.04 439.339 906.776C482.64 935.643 536.206 950.989 599.889 950.989C705.877 950.989 788.558 899.661 846.731 807.811C893.381 734.156 923.427 636.403 940.214 520.173C957.291 401.935 959.294 277.131 952.602 162.761C951.856 150.019 951.056 138.591 950.252 128.657C949.763 122.607 949.419 118.326 949.184 115.984C943.719 61.3469 862.822 65.4173 862.822 120.327C862.822 120.717 862.798 121.831 862.751 123.602C862.666 126.775 862.496 130.517 862.252 134.78C861.543 147.185 860.268 161.121 858.265 176.146C852.555 218.97 842.274 261.69 826.511 301.098C806.856 350.236 780.041 390.421 745.488 419.215C705.341 452.671 654.885 470.69 591.132 470.69C528.526 470.69 484.142 453.512 453.293 422.134C426.793 395.179 409.517 356.846 400.821 309.357C391.96 260.971 392.684 208.146 399.254 158.204C400.32 150.103 401.406 142.791 402.529 136.489C402.912 134.342 403.853 129.646 403.882 129.512C408.949 106.147 394.14 83.1026 370.775 78.0357C367.855 77.4023 364.894 77.0726 362.018 77.0389Z" fill="#2ab7ca" fill-rule="nonzero" opacity="1" stroke="none"/>
<path d="M122.338 74.7606C98.4307 74.7606 79.0499 94.1413 79.0499 118.049L79.0499 905.423C79.0499 957.961 155.037 965.084 164.843 913.468C164.877 913.287 165.727 909.028 166.125 907.132C167.28 901.617 168.706 895.197 170.396 887.908C175.264 866.925 181.344 843.487 188.623 818.206C209.405 746.022 235.812 673.891 268.222 606.891C313.764 512.744 367.312 436.88 428.559 385.894C498.872 327.361 577.002 303.292 666.359 318.185C689.941 322.116 712.267 306.24 716.197 282.658C716.688 279.71 716.872 276.775 716.767 273.9C716.028 253.779 701.232 236.258 680.598 232.819C565.256 213.596 462.077 245.381 373.167 319.396C301.133 379.362 240.734 464.816 190.261 569.157C181.617 587.025 173.452 605.238 165.626 623.623L165.626 118.049C165.626 94.1413 146.245 74.7606 122.338 74.7606Z" fill="#f78931" fill-rule="nonzero" opacity="1" stroke="none"/>
</g>
</svg>
